<svg width="1440" height="900" viewBox="0 0 1440 900" fill="none" xmlns="http://www.w3.org/2000/svg">
<rect width="1440" height="900" fill="#241722"/>
<rect opacity="0.2" x="487" y="296" width="467" height="308" fill="#241722" stroke="url(#paint0_linear_478_211)" stroke-width="4"/>
<path d="M430.576 405.144V422.68H406.768V495H384.88V422.68H361.072V405.144H430.576ZM484.057 495.896C475.609 495.896 467.844 493.933 460.761 490.008C453.764 486.083 448.174 480.621 443.993 473.624C439.897 466.541 437.849 458.605 437.849 449.816C437.849 441.027 439.897 433.133 443.993 426.136C448.174 419.139 453.764 413.677 460.761 409.752C467.844 405.827 475.609 403.864 484.057 403.864C492.505 403.864 500.228 405.827 507.225 409.752C514.308 413.677 519.854 419.139 523.865 426.136C527.961 433.133 530.009 441.027 530.009 449.816C530.009 458.605 527.961 466.541 523.865 473.624C519.769 480.621 514.222 486.083 507.225 490.008C500.228 493.933 492.505 495.896 484.057 495.896ZM484.057 475.928C491.225 475.928 496.942 473.539 501.209 468.76C505.561 463.981 507.737 457.667 507.737 449.816C507.737 441.88 505.561 435.565 501.209 430.872C496.942 426.093 491.225 423.704 484.057 423.704C476.804 423.704 471.001 426.051 466.649 430.744C462.382 435.437 460.249 441.795 460.249 449.816C460.249 457.752 462.382 464.109 466.649 468.888C471.001 473.581 476.804 475.928 484.057 475.928ZM597.226 440.984V459.16H540.906V440.984H597.226ZM650.1 405.144C659.572 405.144 667.849 407.021 674.932 410.776C682.015 414.531 687.476 419.821 691.316 426.648C695.241 433.389 697.204 441.197 697.204 450.072C697.204 458.861 695.241 466.669 691.316 473.496C687.476 480.323 681.972 485.613 674.804 489.368C667.721 493.123 659.487 495 650.1 495H616.436V405.144H650.1ZM648.692 476.056C656.969 476.056 663.412 473.795 668.02 469.272C672.628 464.749 674.932 458.349 674.932 450.072C674.932 441.795 672.628 435.352 668.02 430.744C663.412 426.136 656.969 423.832 648.692 423.832H638.324V476.056H648.692ZM751.932 495.896C743.484 495.896 735.719 493.933 728.636 490.008C721.639 486.083 716.049 480.621 711.868 473.624C707.772 466.541 705.724 458.605 705.724 449.816C705.724 441.027 707.772 433.133 711.868 426.136C716.049 419.139 721.639 413.677 728.636 409.752C735.719 405.827 743.484 403.864 751.932 403.864C760.38 403.864 768.103 405.827 775.1 409.752C782.183 413.677 787.729 419.139 791.74 426.136C795.836 433.133 797.884 441.027 797.884 449.816C797.884 458.605 795.836 466.541 791.74 473.624C787.644 480.621 782.097 486.083 775.1 490.008C768.103 493.933 760.38 495.896 751.932 495.896ZM751.932 475.928C759.1 475.928 764.817 473.539 769.084 468.76C773.436 463.981 775.612 457.667 775.612 449.816C775.612 441.88 773.436 435.565 769.084 430.872C764.817 426.093 759.1 423.704 751.932 423.704C744.679 423.704 738.876 426.051 734.524 430.744C730.257 435.437 728.124 441.795 728.124 449.816C728.124 457.752 730.257 464.109 734.524 468.888C738.876 473.581 744.679 475.928 751.932 475.928ZM859.074 478.104H887.746V495H837.186V405.144H859.074V478.104ZM920.074 405.144V495H898.186V405.144H920.074ZM968.448 495.896C961.877 495.896 955.989 494.829 950.784 492.696C945.579 490.563 941.397 487.405 938.24 483.224C935.168 479.043 933.547 474.008 933.376 468.12H956.672C957.013 471.448 958.165 474.008 960.128 475.8C962.091 477.507 964.651 478.36 967.808 478.36C971.051 478.36 973.611 477.635 975.488 476.184C977.365 474.648 978.304 472.557 978.304 469.912C978.304 467.693 977.536 465.859 976 464.408C974.549 462.957 972.715 461.763 970.496 460.824C968.363 459.885 965.291 458.819 961.28 457.624C955.477 455.832 950.741 454.04 947.072 452.248C943.403 450.456 940.245 447.811 937.6 444.312C934.955 440.813 933.632 436.248 933.632 430.616C933.632 422.253 936.661 415.725 942.72 411.032C948.779 406.253 956.672 403.864 966.4 403.864C976.299 403.864 984.277 406.253 990.336 411.032C996.395 415.725 999.637 422.296 1000.06 430.744H976.384C976.213 427.843 975.147 425.581 973.184 423.96C971.221 422.253 968.704 421.4 965.632 421.4C962.987 421.4 960.853 422.125 959.232 423.576C957.611 424.941 956.8 426.947 956.8 429.592C956.8 432.493 958.165 434.755 960.896 436.376C963.627 437.997 967.893 439.747 973.696 441.624C979.499 443.587 984.192 445.464 987.776 447.256C991.445 449.048 994.603 451.651 997.248 455.064C999.893 458.477 1001.22 462.872 1001.22 468.248C1001.22 473.368 999.893 478.019 997.248 482.2C994.688 486.381 990.933 489.709 985.984 492.184C981.035 494.659 975.189 495.896 968.448 495.896ZM1079.33 405.144V422.68H1055.52V495H1033.63V422.68H1009.82V405.144H1079.33Z" fill="#FEEDE1"/>
<defs>
<linearGradient id="paint0_linear_478_211" x1="720.5" y1="294" x2="720.5" y2="606" gradientUnits="userSpaceOnUse">
<stop stop-color="#632329"/>
<stop offset="0.49648" stop-color="#F25551"/>
<stop offset="1" stop-color="#50F283" stop-opacity="0.8"/>
</linearGradient>
</defs>
</svg>
